<?xml version="1.0" standalone="no"?>
<!DOCTYPE svg PUBLIC "-//W3C//DTD SVG 20010904//EN"
 "http://www.w3.org/TR/2001/REC-SVG-20010904/DTD/svg10.dtd">
<svg version="1.0" xmlns="http://www.w3.org/2000/svg"
 width="500.000000pt" height="500.000000pt" viewBox="0 0 500.000000 500.000000"
 preserveAspectRatio="xMidYMid meet">
<metadata>
Created by potrace 1.11, written by Peter Selinger 2001-2013
</metadata>
<g transform="translate(0.000000,500.000000) scale(0.100000,-0.100000)"
fill="#000000" stroke="none">
<path d="M0 4024 c0 -961 0 -976 20 -1001 25 -32 25 -50 0 -65 -20 -13 -20
-24 -20 -1485 l0 -1473 709 0 709 0 -11 25 c-8 16 -18 23 -28 20 -12 -4 -19 2
-23 20 -4 14 -13 25 -22 25 -8 0 -20 14 -25 30 -10 28 -29 41 -29 20 0 -5 -5
-10 -12 -10 -7 0 -24 -12 -40 -27 -23 -22 -28 -24 -34 -10 -5 14 15 89 41 152
8 18 7 18 -8 7 -14 -12 -17 -8 -28 28 -12 38 -11 44 6 56 10 8 31 15 47 15 32
2 36 3 61 14 13 5 22 2 32 -13 15 -20 70 -36 215 -62 165 -31 256 -62 243 -83
-4 -7 -20 -32 -35 -56 -15 -25 -28 -51 -28 -58 0 -7 -11 -31 -25 -53 l-25 -40
349 0 348 0 12 59 c6 32 14 88 18 123 l6 65 62 32 61 32 89 -16 c48 -8 99 -15
114 -15 37 -1 192 -62 230 -91 64 -48 79 -67 101 -127 l23 -62 948 0 949 0 0
1080 c0 911 -2 1080 -14 1080 -34 0 -42 -40 -47 -253 -2 -48 -6 -90 -11 -93
-4 -3 -4 -13 1 -22 5 -9 6 -43 3 -75 -3 -43 -10 -61 -25 -72 -23 -16 -57 -4
-57 21 0 12 -10 13 -59 8 -46 -5 -79 0 -154 20 -53 15 -116 35 -139 44 -24 10
-59 17 -78 15 -81 -8 -106 -8 -130 0 -14 5 -40 11 -59 14 -19 2 -42 8 -51 13
-10 5 -20 6 -24 3 -3 -3 -6 -1 -6 4 0 6 -8 10 -17 9 -10 -2 -21 1 -24 6 -3 5
-12 10 -20 12 -8 1 -35 14 -60 29 -25 15 -51 27 -57 27 -7 0 -12 5 -12 10 0 6
-8 14 -17 17 -10 4 -40 22 -67 40 -27 18 -51 31 -54 28 -3 -2 -13 5 -23 17
-11 11 -19 18 -19 15 0 -4 -13 7 -29 23 -15 17 -31 30 -35 30 -13 0 -66 54
-66 67 0 7 -7 13 -16 13 -9 0 -21 14 -27 30 -6 17 -15 30 -19 30 -4 0 -8 4 -8
9 0 6 12 8 28 7 15 -2 27 -5 27 -6 0 -2 23 -4 50 -6 39 -2 55 2 72 18 18 17
20 24 11 35 -6 7 -9 16 -6 19 9 9 -47 61 -89 82 -23 12 -43 26 -45 31 -1 6
-20 13 -41 15 -32 4 -39 1 -54 -22 -27 -41 -41 -54 -48 -42 -3 5 -3 15 1 22 5
8 2 9 -10 5 -10 -4 -20 -7 -22 -7 -2 0 -4 -7 -4 -16 0 -8 5 -12 10 -9 6 3 10
-4 10 -16 0 -18 2 -19 15 -9 12 10 15 9 15 -4 0 -10 4 -14 10 -11 6 3 7 -1 4
-9 -7 -19 -20 -21 -28 -3 -5 10 -7 10 -12 0 -10 -22 -26 -14 -19 10 5 19 5 20
-5 4 -6 -9 -10 -27 -8 -40 2 -13 -2 -21 -9 -20 -7 2 -13 -2 -13 -8 0 -5 -8 -9
-17 -8 -36 3 -45 -1 -41 -19 3 -10 -1 -27 -8 -37 -13 -18 -14 -18 -34 0 -12
11 -19 27 -17 37 4 14 -1 18 -19 18 -13 0 -24 5 -24 10 0 6 -7 10 -16 10 -11
0 -14 6 -9 21 6 18 5 19 -14 10 -15 -9 -25 -8 -40 1 -15 9 -24 8 -44 -5 -18
-11 -27 -13 -29 -5 -3 8 -12 8 -35 1 -23 -9 -34 -8 -44 2 -19 18 -59 29 -59
16 0 -21 -31 -41 -49 -31 -10 5 -27 6 -39 3 -13 -3 -22 -1 -22 6 0 6 -4 11
-10 11 -18 0 -10 -22 10 -27 11 -3 20 -9 20 -13 0 -12 -41 1 -72 22 -33 23
-48 23 -49 1 0 -15 -2 -15 -8 2 -7 16 -9 17 -13 5 -3 -8 -3 -4 -1 10 3 24 3
24 -12 6 -11 -15 -15 -16 -15 -5 0 8 5 20 10 25 8 8 7 19 -1 37 l-12 26 -36
-18 c-20 -10 -42 -16 -48 -14 -19 7 -16 -5 7 -29 31 -34 13 -39 -22 -6 -18 17
-34 25 -36 19 -2 -6 -8 -9 -13 -5 -5 3 -9 1 -9 -5 0 -5 4 -11 9 -13 4 -1 5
-12 0 -23 -6 -16 -8 -16 -8 -3 -1 11 -8 15 -26 13 -14 -1 -25 2 -25 7 0 5 -6
6 -12 2 -9 -5 -9 -3 1 9 11 14 11 18 -3 23 -9 3 -16 11 -16 18 0 6 -9 17 -20
24 -12 7 -18 17 -14 23 4 8 9 7 15 -2 7 -11 9 -10 9 3 0 9 -9 20 -20 23 -11 3
-20 14 -20 23 0 11 -3 13 -11 5 -11 -11 -59 -5 -59 8 0 5 -8 9 -17 9 -17 -1
-17 -1 0 -14 19 -14 23 -36 7 -36 -5 0 -10 7 -10 15 0 25 -18 17 -34 -15 -8
-17 -10 -30 -5 -30 5 0 9 -6 9 -14 0 -8 6 -17 13 -20 10 -5 10 -7 0 -12 -18
-8 -16 -27 2 -20 18 7 45 -3 45 -16 0 -5 -4 -6 -10 -3 -5 3 -10 -3 -10 -14 0
-11 -5 -23 -12 -27 -7 -5 -9 -2 -6 8 4 8 1 15 -7 15 -7 0 -16 -14 -19 -30 -4
-20 -10 -27 -21 -23 -8 3 -19 -2 -24 -12 -6 -10 -11 -12 -11 -4 0 7 -13 12
-30 12 -16 0 -30 5 -30 10 0 6 7 10 15 10 8 0 15 5 15 10 0 6 -6 10 -13 10
-18 0 -58 35 -50 43 8 9 10 106 2 101 -4 -2 -10 3 -13 12 -8 22 -8 26 4 19 6
-3 10 1 10 10 0 11 -5 15 -16 11 -10 -4 -13 -2 -7 7 4 6 6 20 4 31 -1 10 2 22
8 25 6 4 8 17 4 29 -3 12 -9 19 -14 16 -5 -3 -9 0 -9 5 0 6 5 11 11 11 6 0 9
6 6 13 -2 6 -9 11 -14 10 -16 -3 -13 55 3 61 15 6 19 31 7 39 -5 2 -2 2 6 0 9
-2 12 4 9 21 -4 17 -1 23 9 19 7 -3 19 0 27 6 7 6 20 9 28 6 9 -4 14 1 14 15
0 13 -4 16 -10 10 -13 -13 -29 -13 -21 0 3 6 2 10 -3 10 -11 0 -9 30 3 49 6
11 3 13 -14 8 -17 -4 -20 -3 -11 8 8 9 3 16 -22 28 -18 9 -39 25 -47 36 -8 11
-18 18 -23 15 -4 -3 -8 1 -8 10 0 8 -13 17 -30 21 -16 4 -30 11 -30 16 0 6 -4
7 -10 4 -6 -3 -7 1 -4 9 3 9 2 16 -4 16 -6 0 -13 -6 -15 -12 -4 -10 -6 -10 -6
0 -1 6 -8 12 -16 12 -9 0 -18 7 -21 15 -4 8 -11 12 -17 8 -6 -3 -7 -1 -3 6 4
6 12 9 17 6 5 -4 9 -1 9 4 0 6 -6 11 -14 11 -9 0 -12 7 -9 19 3 10 -2 21 -10
24 -10 4 -13 -1 -9 -18 2 -12 -1 -26 -7 -29 -7 -5 -11 2 -11 18 0 14 -4 26
-10 26 -5 0 -10 -4 -10 -10 0 -5 -5 -10 -10 -10 -7 0 -7 6 -1 18 7 14 5 22 -9
32 -17 12 -17 14 6 36 13 13 28 24 34 24 5 0 10 11 10 25 0 18 -5 25 -20 25
-11 0 -19 3 -19 8 3 19 -2 25 -11 12 -8 -12 -10 -10 -10 10 0 21 5 25 34 27
21 2 39 -3 46 -13 10 -11 15 -12 21 -2 14 22 89 -25 89 -56 0 -10 9 -16 23
-16 25 -1 64 -26 48 -31 -19 -7 5 -29 37 -35 27 -5 32 -3 32 12 0 13 3 15 11
7 6 -6 18 -9 25 -6 8 3 14 1 14 -4 0 -10 56 -10 88 2 12 4 22 11 22 16 0 5 11
9 24 9 13 0 29 7 36 15 7 9 15 14 17 11 9 -9 86 16 106 34 19 18 58 27 97 21
8 -1 36 -3 62 -5 27 -1 55 -9 66 -19 10 -9 23 -17 29 -17 15 0 242 -135 370
-221 106 -70 273 -159 300 -159 8 0 53 -16 100 -35 47 -20 88 -34 90 -31 6 5
-130 151 -202 216 -51 47 -128 100 -144 100 -5 0 -14 7 -21 16 -21 25 -80 45
-156 54 -83 10 -192 62 -199 95 -9 37 -12 155 -4 155 10 0 -20 124 -31 128
-14 5 -12 34 4 74 9 20 11 40 6 48 -9 15 5 55 32 86 10 11 18 28 18 38 0 10
21 53 46 95 38 62 47 84 45 119 0 23 3 42 8 42 5 0 21 25 35 55 14 30 30 55
37 55 7 0 9 10 5 28 -3 15 -3 21 0 15 3 -7 15 -13 27 -12 12 0 16 3 10 6 -7 2
-13 9 -13 15 0 6 8 4 18 -5 10 -10 28 -17 40 -17 12 0 22 -5 22 -11 0 -8 4 -8
14 0 7 6 20 9 27 6 8 -2 23 2 34 11 17 13 18 16 5 24 -13 8 -13 10 1 10 9 0
19 -9 22 -19 3 -13 23 -25 65 -37 33 -10 58 -22 55 -27 -6 -11 39 14 50 28 5
6 7 3 3 -7 -3 -10 -1 -18 4 -18 6 0 10 -6 10 -13 0 -16 36 -48 45 -39 3 4 3
-2 -1 -12 -6 -15 -3 -17 14 -11 18 5 22 2 22 -13 0 -11 7 -23 16 -26 12 -5 14
-1 10 17 -3 12 -3 16 0 10 3 -7 12 -13 20 -13 8 0 14 -9 14 -21 0 -15 5 -19
18 -15 9 3 29 0 44 -8 18 -10 29 -11 37 -3 12 12 44 -10 35 -25 -4 -6 -9 -5
-14 2 -10 17 -40 5 -40 -15 0 -8 5 -15 10 -15 6 0 10 7 10 17 0 14 2 14 21 -3
12 -10 18 -26 15 -37 -4 -17 -3 -17 21 -2 14 10 31 14 41 9 9 -4 29 -7 44 -8
37 -1 48 -16 12 -17 -17 -1 -22 -3 -11 -6 9 -2 17 -12 17 -21 0 -13 5 -11 20
8 17 22 19 23 14 4 -4 -16 2 -26 28 -42 32 -21 32 -22 8 -22 -19 0 -22 -2 -10
-9 8 -6 17 -8 21 -5 4 2 10 0 14 -6 4 -6 10 -8 15 -5 4 3 6 -5 2 -17 -5 -20
-3 -21 10 -10 12 10 18 10 23 1 6 -8 10 -7 16 2 8 12 10 12 18 0 7 -11 10 -9
14 10 3 20 5 18 6 -8 0 -17 7 -34 14 -37 6 -4 3 -5 -9 -2 -16 3 -21 -1 -20
-18 1 -14 7 -20 19 -18 11 2 17 -4 17 -18 0 -11 4 -20 10 -20 5 0 9 9 7 19 -1
11 3 19 8 18 6 -1 10 -12 10 -24 -1 -19 3 -21 25 -17 19 4 22 3 10 -5 -12 -8
-12 -13 -2 -23 6 -6 12 -23 12 -37 0 -15 4 -21 8 -16 4 6 18 19 31 30 19 15
23 16 19 4 -8 -22 20 -77 43 -84 10 -4 19 -14 19 -23 0 -13 2 -14 8 -4 8 12
42 7 42 -7 0 -3 14 -12 30 -19 29 -13 30 -16 30 -75 0 -83 -8 -111 -26 -96 -8
6 -14 17 -14 24 0 7 -6 15 -13 18 -17 6 -16 -56 2 -98 7 -16 15 -46 18 -65 3
-19 22 -57 43 -85 43 -58 49 -80 56 -189 3 -45 7 -87 9 -93 5 -16 35 -5 35 13
0 8 4 14 10 14 5 0 19 18 30 40 l20 40 -30 31 c-33 35 -37 54 -16 82 21 27
136 98 155 95 22 -5 57 -82 75 -170 14 -66 32 -130 65 -223 5 -16 17 -77 27
-135 9 -58 18 -112 21 -120 8 -27 23 13 29 82 6 62 36 130 68 158 14 11 16
133 16 1156 l0 1144 -2500 0 -2500 0 0 -976z m1660 911 c0 -8 -7 -15 -15 -15
-8 0 -15 7 -15 15 0 8 7 15 15 15 8 0 15 -7 15 -15z m-100 -36 c0 -13 -38 -11
-46 3 -4 7 -3 8 4 4 7 -4 12 -3 12 3 0 6 7 8 15 5 8 -4 15 -10 15 -15z m1700
-720 c0 -14 -17 -10 -23 5 -4 10 -1 13 9 9 7 -3 14 -9 14 -14z m-1720 -222 c0
-5 7 -7 15 -3 17 6 21 -9 5 -19 -5 -3 -10 -12 -10 -18 0 -8 3 -8 9 1 6 10 10
7 15 -13 4 -15 18 -44 32 -64 13 -21 33 -60 43 -87 49 -127 64 -160 78 -176
34 -37 1 -64 -162 -133 -16 -7 -54 -25 -82 -39 -56 -28 -83 -32 -99 -16 -10
10 -163 30 -238 30 -43 0 -47 2 -36 15 7 9 19 14 27 11 8 -3 12 -2 8 3 -3 5 1
12 7 15 7 4 2 4 -11 2 l-23 -5 21 23 c11 12 21 32 21 45 0 12 6 21 13 20 32
-4 41 1 23 14 -16 12 -16 14 -2 26 9 7 22 11 31 8 17 -7 30 9 15 18 -5 3 -10
11 -10 17 0 7 5 6 14 -1 11 -9 16 -9 21 -1 4 7 17 9 30 6 15 -4 25 -1 28 8 4
9 -4 16 -24 20 -35 7 -39 29 -4 24 13 -2 23 1 22 7 -1 5 -7 9 -14 7 -6 -1 -14
2 -18 8 -6 9 8 15 29 11 19 -4 46 11 46 26 0 10 -6 13 -16 9 -15 -6 -15 -4 -3
10 9 11 15 12 17 5 3 -9 7 -9 18 0 11 9 14 8 14 -5 0 -14 3 -14 20 -4 12 8 20
24 20 40 0 30 9 35 28 16 20 -20 35 5 37 64 2 43 5 52 19 50 18 -3 21 9 6 24
-7 7 -6 11 5 11 8 0 15 -5 15 -10z m2260 -27 c0 -5 -5 -10 -11 -10 -5 0 -7 5
-4 10 3 6 8 10 11 10 2 0 4 -4 4 -10z m-2320 -69 c0 -14 -18 -23 -31 -15 -8 4
-7 9 2 15 18 11 29 11 29 0z m-50 -11 c0 -5 -7 -10 -15 -10 -8 0 -15 5 -15 10
0 6 7 10 15 10 8 0 15 -4 15 -10z m3257 -43 c31 -30 6 -36 -135 -32 -75 2
-142 4 -148 4 -7 1 -15 8 -18 16 -10 27 33 35 162 32 95 -3 127 -8 139 -20z
m63 -57 c-20 -13 -40 -13 -40 0 0 6 12 10 28 10 21 0 24 -2 12 -10z m-63 -37
c73 -40 93 -55 93 -72 0 -6 23 -22 50 -36 32 -16 55 -36 62 -53 6 -15 19 -43
29 -63 11 -20 19 -57 19 -82 0 -45 0 -46 -54 -70 -48 -22 -65 -25 -158 -22
-56 1 -111 -1 -120 -7 -29 -14 -22 17 8 41 24 19 63 33 162 60 46 13 54 32 20
49 -47 23 -201 70 -213 65 -25 -9 -4 33 24 50 21 12 41 15 80 10 28 -3 51 -2
51 3 0 16 -76 74 -105 80 -21 4 -57 -4 -115 -25 -46 -17 -94 -31 -106 -31 -12
0 -24 -6 -27 -14 -14 -36 -117 -71 -117 -40 0 8 6 11 15 8 8 -4 15 -2 15 3 0
6 20 20 45 33 25 13 45 27 45 32 0 12 62 48 150 85 41 18 76 32 77 33 1 0 33
-17 70 -37z m-2537 -567 c0 -3 -4 -8 -10 -11 -5 -3 -10 -1 -10 4 0 6 5 11 10
11 6 0 10 -2 10 -4z m-310 -65 c0 -6 -4 -13 -10 -16 -5 -3 -10 1 -10 9 0 9 5
16 10 16 6 0 10 -4 10 -9z m-1668 -125 c29 -43 -14 -86 -65 -67 -36 14 -39 67
-4 81 25 10 58 3 69 -14z m1962 -582 c3 -8 2 -12 -4 -9 -6 3 -10 10 -10 16 0
14 7 11 14 -7z m201 -6 c6 -4 2 -8 -7 -8 -10 0 -18 7 -18 17 0 9 3 12 8 7 4
-5 12 -12 17 -16z m85 4 c0 -13 -12 -22 -22 -16 -10 6 -1 24 13 24 5 0 9 -4 9
-8z m275 -92 c-3 -5 -11 -10 -16 -10 -6 0 -7 5 -4 10 3 6 11 10 16 10 6 0 7
-4 4 -10z m-96 -27 c-9 -24 -7 -30 11 -45 12 -10 18 -18 13 -18 -6 0 -19 8
-31 18 -15 13 -18 22 -11 35 6 9 7 22 4 27 -3 6 1 10 9 10 13 0 14 -5 5 -27z
m-452 -40 c-3 -10 -5 -2 -5 17 0 19 2 27 5 18 2 -10 2 -26 0 -35z m543 37 c0
-5 -5 -10 -11 -10 -5 0 -7 5 -4 10 3 6 8 10 11 10 2 0 4 -4 4 -10z m35 -40 c3
-5 1 -10 -4 -10 -6 0 -11 5 -11 10 0 6 2 10 4 10 3 0 8 -4 11 -10z m-515 -30
c0 -5 -4 -10 -9 -10 -6 0 -13 5 -16 10 -3 6 1 10 9 10 9 0 16 -4 16 -10z
m1075 0 c3 -5 1 -10 -4 -10 -6 0 -11 5 -11 10 0 6 2 10 4 10 3 0 8 -4 11 -10z
m-1540 -21 c139 -18 407 -69 485 -94 76 -24 223 -57 237 -53 5 1 18 -1 30 -6
13 -4 32 -2 44 5 18 9 21 9 16 -3 -4 -11 14 -20 69 -36 40 -12 80 -22 89 -22
8 0 23 -4 33 -10 28 -15 180 -60 272 -80 47 -10 97 -23 111 -30 23 -11 31 -9
65 14 75 49 134 41 134 -19 0 -28 -10 -36 -50 -37 -23 -1 -29 -5 -26 -17 4
-13 -66 -78 -139 -129 -6 -4 -16 -20 -23 -35 l-12 -28 34 26 35 26 -12 -38
c-6 -21 -17 -42 -24 -46 -27 -17 -13 -34 32 -41 59 -8 84 -21 96 -53 7 -20 6
-28 -7 -38 -20 -14 -74 1 -74 21 0 14 -60 67 -68 60 -2 -3 3 -18 13 -32 10
-15 19 -48 20 -73 4 -66 8 -75 30 -81 11 -3 21 -15 23 -27 3 -18 -2 -20 -38
-20 -22 0 -43 4 -46 9 -3 5 -15 6 -26 3 -11 -4 -26 -1 -36 8 -13 12 -27 13
-62 7 -36 -7 -52 -4 -85 13 -61 31 -69 34 -83 30 -6 -3 -10 -9 -6 -14 3 -5 -2
-9 -10 -9 -9 0 -16 5 -16 11 0 5 -4 7 -10 4 -5 -3 -10 -1 -10 5 0 33 -81 62
-185 65 -99 3 -162 14 -245 43 -8 3 -21 4 -28 3 -8 -1 -19 2 -25 7 -7 5 -36 9
-64 8 -29 -1 -53 2 -53 7 0 5 -7 7 -15 4 -8 -4 -17 -2 -20 4 -4 5 -11 7 -16 3
-11 -7 -89 26 -89 39 0 4 -4 6 -9 3 -5 -4 -24 1 -43 11 -60 30 -68 33 -83 33
-8 0 -15 4 -15 9 0 5 -13 12 -30 16 -16 4 -32 11 -35 16 -4 5 -14 9 -24 9 -10
0 -26 9 -36 20 -10 11 -26 20 -36 20 -10 0 -24 6 -32 14 -8 8 -23 16 -33 18
-10 2 -25 9 -32 16 -7 6 -22 12 -33 12 -12 0 -17 5 -14 10 4 7 -3 8 -20 4 -19
-5 -25 -3 -23 7 2 7 -6 14 -17 15 -38 2 -65 15 -58 27 5 9 2 8 -8 0 -13 -10
-20 -10 -35 1 -11 9 -30 12 -46 9 -17 -3 -28 -1 -28 6 0 6 -9 11 -21 11 -11 0
-18 4 -15 8 3 5 -15 6 -39 2 -37 -6 -45 -4 -46 9 0 10 -2 12 -6 4 -2 -7 -11
-13 -18 -13 -7 0 -16 6 -18 13 -4 9 -8 8 -16 -3 -5 -8 -13 -12 -16 -9 -9 10 6
39 20 39 21 0 29 21 14 32 -10 7 -6 8 14 5 15 -2 27 -1 27 3 0 9 32 6 48 -4 8
-5 19 -1 28 10 14 18 15 18 9 -3 -5 -17 -2 -23 9 -23 12 0 13 6 5 32 -5 18 -9
34 -9 35 0 2 -11 -3 -25 -9 -21 -9 -28 -8 -45 7 -16 14 -17 20 -8 27 10 6 10
8 1 8 -7 0 -13 8 -13 18 -1 9 -14 33 -30 52 -36 41 -37 50 -7 50 21 1 22 1 3
15 -15 11 -16 15 -5 15 8 0 21 9 29 19 13 19 14 19 38 -7 15 -15 20 -28 13
-30 -6 -2 -11 -8 -11 -14 0 -6 7 -8 15 -4 14 5 20 -6 16 -28 -3 -12 19 -56 37
-74 6 -8 17 -22 22 -32 11 -21 84 -45 102 -34 19 12 119 4 157 -12 44 -19 91
-26 91 -14 0 5 -26 17 -57 26 -75 21 -88 34 -37 35 21 1 44 0 49 -1 27 -5 163
-2 184 4 15 5 21 4 17 -2 -7 -11 117 -37 132 -28 6 3 13 0 15 -6 3 -7 6 -4 6
7 1 14 -6 21 -21 23 -13 1 -56 12 -96 25 -66 22 -72 23 -67 7 7 -23 -12 -20
-113 14 -40 14 -95 28 -122 32 -28 4 -50 11 -50 16 0 5 8 7 18 4 52 -17 140
-27 247 -30 l120 -4 -60 14 c-33 8 -104 17 -158 20 -82 6 -100 10 -108 26 -6
11 -8 22 -5 26 7 7 180 -12 271 -29 49 -9 215 -19 215 -12 0 1 -15 9 -32 18
-35 18 -48 21 -142 30 -33 3 -62 8 -66 10 -8 5 -20 7 -170 35 -63 12 -117 24
-120 27 -6 6 105 -3 225 -18z m1505 11 c0 -5 -4 -10 -10 -10 -5 0 -10 5 -10
10 0 6 5 10 10 10 6 0 10 -4 10 -10z m-602 -35 c-3 -3 -9 2 -12 12 -6 14 -5
15 5 6 7 -7 10 -15 7 -18z m633 -18 c-10 -9 -11 -8 -5 6 3 10 9 15 12 12 3 -3
0 -11 -7 -18z m-675 -14 c-10 -10 -19 5 -10 18 6 11 8 11 12 0 2 -7 1 -15 -2
-18z m74 -8 c0 -19 5 -35 11 -35 7 0 9 10 7 25 -5 24 16 54 29 41 3 -3 1 -6
-5 -6 -7 0 -12 -13 -12 -30 0 -16 5 -30 10 -30 6 0 10 -7 10 -16 0 -8 -5 -12
-11 -8 -7 4 -9 0 -5 -12 4 -14 -1 -22 -20 -31 -24 -11 -26 -10 -21 7 3 11 1
23 -4 26 -5 3 -9 0 -9 -5 0 -6 -5 -11 -11 -11 -6 0 -9 6 -6 13 3 7 -5 13 -20
13 -32 2 -37 8 -22 31 8 14 20 18 41 15 27 -4 29 -3 22 22 -4 16 -2 26 5 26 6
0 11 -16 11 -35z m-90 -15 c0 -5 -4 -10 -10 -10 -5 0 -10 5 -10 10 0 6 5 10
10 10 6 0 10 -4 10 -10z m385 -20 c3 -5 1 -10 -4 -10 -6 0 -11 5 -11 10 0 6 2
10 4 10 3 0 8 -4 11 -10z m-25 -10 c0 -6 31 -8 80 -5 69 5 79 4 74 -10 -3 -8
-2 -15 4 -15 6 0 13 6 15 13 9 20 6 -66 -3 -93 l-8 -25 -2 25 c-2 18 -5 15
-10 -15 -6 -31 -7 -34 -9 -12 0 17 -7 27 -17 27 -8 0 -12 5 -9 10 3 6 2 10 -4
10 -5 0 -11 -4 -13 -9 -2 -6 -17 -6 -38 -1 -19 4 -30 8 -25 9 6 1 6 4 0 9 -6
4 -16 18 -23 32 l-12 25 6 -25 6 -25 -22 21 c-16 15 -20 28 -15 43 6 21 25 29
25 11z m-1853 -232 c-2 -13 -4 -3 -4 22 0 25 2 35 4 23 2 -13 2 -33 0 -45z
m-37 24 c0 -9 -5 -24 -10 -32 -7 -11 -8 -5 -5 20 5 31 4 32 -5 11 -6 -13 -13
-21 -16 -18 -3 3 -1 15 6 26 12 24 30 19 30 -7z m100 -42 c0 -5 -7 -10 -16
-10 -8 0 -12 5 -9 10 3 6 10 10 16 10 5 0 9 -4 9 -10z m1650 -510 c0 -5 -2
-10 -4 -10 -3 0 -8 5 -11 10 -3 6 -1 10 4 10 6 0 11 -4 11 -10z m236 -68 c2
-8 0 -8 -3 -1 -4 8 -7 8 -13 0 -5 -9 -11 -7 -20 4 -12 15 -11 17 10 13 13 -1
25 -9 26 -16z m-241 -312 c-3 -5 -12 -10 -18 -10 -7 0 -6 4 3 10 19 12 23 12
15 0z m35 0 c0 -5 -2 -10 -4 -10 -3 0 -8 5 -11 10 -3 6 -1 10 4 10 6 0 11 -4
11 -10z m-789 -240 c18 -10 19 -14 6 -33 -28 -42 -39 -42 -151 -3 -58 21 -103
42 -100 47 7 13 219 2 245 -11z m149 -23 c0 -7 -5 -55 -10 -108 -5 -53 -10
-157 -11 -230 -1 -74 -5 -163 -8 -199 -7 -59 -8 -63 -18 -40 -22 48 -41 439
-27 543 6 43 8 45 40 45 19 0 34 -5 34 -11z m692 -24 c31 -28 21 -35 -39 -28
-120 13 -137 24 -70 44 40 12 85 6 109 -16z m-572 -23 c5 0 8 -13 7 -29 -2
-24 -5 -27 -22 -21 -12 4 -21 18 -23 35 -3 22 0 27 13 21 9 -3 21 -6 25 -6z
m10 -125 c0 -5 -5 -3 -10 5 -5 8 -10 20 -10 25 0 6 5 3 10 -5 5 -8 10 -19 10
-25z m-1143 -427 c-3 -7 -5 -2 -5 12 0 14 2 19 5 13 2 -7 2 -19 0 -25z"/>
<path d="M1516 3893 c-6 -14 -5 -15 5 -6 7 7 10 15 7 18 -3 3 -9 -2 -12 -12z"/>
<path d="M1357 3700 c3 -11 9 -20 14 -20 11 0 11 3 3 24 -9 23 -23 20 -17 -4z"/>
<path d="M1230 1950 c0 -5 5 -10 11 -10 5 0 7 5 4 10 -3 6 -8 10 -11 10 -2 0
-4 -4 -4 -10z"/>
<path d="M1997 1925 c-4 -9 -1 -18 9 -22 22 -8 30 5 12 23 -14 14 -16 14 -21
-1z"/>
<path d="M1320 1910 c0 -5 7 -10 16 -10 8 0 12 5 9 10 -3 6 -10 10 -16 10 -5
0 -9 -4 -9 -10z"/>
<path d="M1197 1873 c-12 -12 -7 -22 8 -17 8 4 15 10 15 15 0 11 -14 12 -23 2z"/>
<path d="M2895 1670 c-8 -13 5 -13 25 0 13 8 13 10 -2 10 -9 0 -20 -4 -23 -10z"/>
<path d="M3035 1440 c-4 -6 5 -10 19 -10 14 0 26 5 26 10 0 6 -9 10 -19 10
-11 0 -23 -4 -26 -10z"/>
<path d="M3040 2010 c0 -6 7 -10 15 -10 8 0 15 2 15 4 0 2 -7 6 -15 10 -8 3
-15 1 -15 -4z"/>
<path d="M3440 4100 c0 -5 5 -10 10 -10 6 0 10 5 10 10 0 6 -4 10 -10 10 -5 0
-10 -4 -10 -10z"/>
<path d="M3810 3880 c0 -5 5 -10 10 -10 6 0 10 5 10 10 0 6 -4 10 -10 10 -5 0
-10 -4 -10 -10z"/>
<path d="M4110 3610 c0 -5 7 -10 15 -10 8 0 15 5 15 10 0 6 -7 10 -15 10 -8 0
-15 -4 -15 -10z"/>
<path d="M4160 3584 c0 -8 5 -12 10 -9 6 4 8 11 5 16 -9 14 -15 11 -15 -7z"/>
<path d="M4351 3364 c0 -11 3 -14 6 -6 3 7 2 16 -1 19 -3 4 -6 -2 -5 -13z"/>
<path d="M1970 3236 c0 -2 7 -9 15 -16 13 -11 14 -10 9 4 -5 14 -24 23 -24 12z"/>
<path d="M1970 3181 c0 -5 5 -13 10 -16 6 -3 10 -2 10 4 0 5 -4 13 -10 16 -5
3 -10 2 -10 -4z"/>
<path d="M2320 2820 c0 -5 5 -10 10 -10 6 0 10 5 10 10 0 6 -4 10 -10 10 -5 0
-10 -4 -10 -10z"/>
<path d="M2250 2794 c0 -8 5 -12 10 -9 6 3 10 10 10 16 0 5 -4 9 -10 9 -5 0
-10 -7 -10 -16z"/>
<path d="M2440 2773 c0 -5 5 -15 10 -23 8 -12 10 -11 10 8 0 12 -4 22 -10 22
-5 0 -10 -3 -10 -7z"/>
<path d="M4510 2765 c0 -5 5 -17 10 -25 5 -8 10 -10 10 -5 0 6 -5 17 -10 25
-5 8 -10 11 -10 5z"/>
<path d="M2480 2720 c0 -5 4 -10 9 -10 6 0 13 5 16 10 3 6 -1 10 -9 10 -9 0
-16 -4 -16 -10z"/>
<path d="M4504 2572 c5 -132 4 -165 -9 -196 -15 -36 -72 -122 -106 -161 -10
-11 -29 -41 -43 -67 l-25 -47 37 -29 c53 -40 110 -72 131 -72 15 0 19 12 25
73 9 112 14 149 26 192 15 60 29 189 25 242 -7 91 -44 223 -62 223 -3 0 -3
-71 1 -158z"/>
<path d="M2430 2431 c0 -6 5 -13 10 -16 6 -3 10 1 10 9 0 9 -4 16 -10 16 -5 0
-10 -4 -10 -9z"/>
<path d="M2460 2420 c0 -5 5 -10 10 -10 6 0 10 5 10 10 0 6 -4 10 -10 10 -5 0
-10 -4 -10 -10z"/>
<path d="M2470 2395 c0 -5 5 -17 10 -25 5 -8 10 -10 10 -5 0 6 -5 17 -10 25
-5 8 -10 11 -10 5z"/>
<path d="M3492 2366 c13 -14 28 -12 28 5 0 5 -9 9 -20 9 -17 0 -19 -2 -8 -14z"/>
<path d="M2241 2344 c0 -11 3 -14 6 -6 3 7 2 16 -1 19 -3 4 -6 -2 -5 -13z"/>
<path d="M3413 2343 c-14 -5 -18 -33 -5 -33 10 0 32 22 32 32 0 9 -8 9 -27 1z"/>
<path d="M2750 2289 c0 -8 10 -15 22 -16 11 -1 25 -8 29 -15 7 -10 9 -9 9 5 0
10 -7 17 -18 17 -10 0 -23 5 -30 12 -9 9 -12 9 -12 -3z"/>
<path d="M3195 2270 c3 -5 8 -10 11 -10 2 0 4 5 4 10 0 6 -5 10 -11 10 -5 0
-7 -4 -4 -10z"/>
<path d="M3270 2251 c0 -6 4 -13 10 -16 6 -3 7 1 4 9 -7 18 -14 21 -14 7z"/>
<path d="M3610 2190 c0 -5 5 -10 11 -10 5 0 7 5 4 10 -3 6 -8 10 -11 10 -2 0
-4 -4 -4 -10z"/>
<path d="M3325 2170 c3 -5 10 -10 16 -10 5 0 9 5 9 10 0 6 -7 10 -16 10 -8 0
-12 -4 -9 -10z"/>
<path d="M1470 15 c-7 -9 -8 -15 -2 -15 5 0 12 7 16 15 7 19 2 19 -14 0z"/>
</g>
</svg>
